<svg width="22" height="22" fill="none" xmlns="http://www.w3.org/2000/svg"><path d="M21.184 10.836l-9.057-9.052-.607-.607a.739.739 0 00-1.04 0L.816 10.836a1.498 1.498 0 00-.44 1.078c.01.825.696 1.484 1.52 1.484h.997v7.633h16.214v-7.633h1.017c.401 0 .778-.157 1.062-.44a1.49 1.49 0 00.438-1.063c0-.398-.157-.775-.44-1.059zm-8.872 8.508H9.688v-4.781h2.624v4.78zm5.108-7.634v7.634h-3.608V14a.937.937 0 00-.937-.937h-3.75a.937.937 0 00-.937.937v5.344H4.58V11.71H2.33l8.671-8.665.542.542 8.128 8.123H17.42z" fill="#232323"/></svg>