<svg width="32" height="32" fill="none" xmlns="http://www.w3.org/2000/svg"><circle cx="16" cy="16" r="16" fill="#006565"/><g clip-path="url(#clip0_17_383)"><path fill-rule="evenodd" clip-rule="evenodd" d="M9.885 8.511a1.746 1.746 0 012.61.163l1.795 2.306c.329.423.445.974.315 1.494l-.547 2.19a.678.678 0 00.178.643l2.457 2.457a.678.678 0 00.644.178l2.189-.547a1.746 1.746 0 011.494.315l2.306 1.794c.829.645.905 1.87.163 2.611l-1.034 1.034c-.74.74-1.846 1.065-2.877.702a18.633 18.633 0 01-7.01-4.42 18.633 18.633 0 01-4.42-7.009c-.362-1.03-.037-2.137.703-2.877l1.034-1.034z" fill="#fff"/></g><defs><clipPath id="clip0_17_383"><path fill="#fff" transform="translate(8 8)" d="M0 0h16v16H0z"/></clipPath></defs></svg>