<svg width="67" height="59" fill="none" xmlns="http://www.w3.org/2000/svg"><path d="M18.004 57H8.402c-1.698 0-3.326-.58-4.527-1.611C2.675 54.357 2 52.959 2 51.499V32.25c0-1.458.674-2.857 1.875-3.888 1.2-1.032 2.829-1.611 4.527-1.611h9.602m22.405-5.5v-11c0-2.188-1.011-4.286-2.812-5.834C35.797 2.87 33.354 2 30.807 2L18.004 26.75V57h36.105c1.544.015 3.042-.45 4.218-1.31 1.177-.858 1.952-2.054 2.183-3.365l4.417-24.75a4.756 4.756 0 00-.18-2.359 5.324 5.324 0 00-1.318-2.076 6.427 6.427 0 00-2.21-1.408 7.308 7.308 0 00-2.693-.482H40.409z" stroke="#006565" stroke-width="3" stroke-linecap="round" stroke-linejoin="round"/></svg>