<svg width="43" height="37" fill="none" xmlns="http://www.w3.org/2000/svg"><path d="M11.907 35H5.963c-1.051 0-2.06-.348-2.802-.967C2.418 33.414 2 32.575 2 31.7V20.15c0-.875.418-1.715 1.16-2.334.744-.618 1.752-.966 2.803-.966h5.944m13.87-3.3v-6.6c0-1.313-.626-2.572-1.74-3.5C22.921 2.522 21.41 2 19.832 2l-7.926 14.85V35h22.35c.957.009 1.884-.27 2.612-.786.728-.515 1.208-1.232 1.352-2.02l2.734-14.85a2.77 2.77 0 00-.112-1.414 3.182 3.182 0 00-.816-1.246 3.995 3.995 0 00-1.367-.845 4.655 4.655 0 00-1.668-.29H25.777z" stroke="#006565" stroke-width="2.3" stroke-linecap="round" stroke-linejoin="round"/></svg>