<svg width="24" height="22" fill="none" xmlns="http://www.w3.org/2000/svg"><path d="M6.589 21H3.235a2.37 2.37 0 01-1.58-.586A1.9 1.9 0 011 19v-7c0-.53.236-1.04.655-1.414A2.376 2.376 0 013.235 10H6.59m7.824-2V4c0-.796-.354-1.559-.982-2.121A3.571 3.571 0 0011.06 1l-4.471 9v11h12.608a2.4 2.4 0 001.473-.476c.41-.313.681-.747.762-1.224l1.543-9c.048-.287.027-.58-.064-.858a1.947 1.947 0 00-.46-.755 2.236 2.236 0 00-.771-.512A2.462 2.462 0 0020.74 8h-6.327z" stroke="#006565" stroke-width="1.8" stroke-linecap="round" stroke-linejoin="round"/></svg>